<svg width="14" height="14" viewBox="0 0 14 14" fill="none" xmlns="http://www.w3.org/2000/svg">
<path d="M12.8333 9.91778C12.8327 11.5925 11.6559 12.9922 10.0842 13.3358L9.71202 12.2193C10.4144 12.1046 11.0113 11.6765 11.3545 11.0832H9.91666C9.27231 11.0832 8.74999 10.5609 8.74999 9.9165V7.58317C8.74999 6.93882 9.27231 6.4165 9.91666 6.4165H11.6305C11.3435 4.11449 9.37976 2.33317 6.99999 2.33317C4.62021 2.33317 2.65648 4.11449 2.36943 6.4165H4.08332C4.72766 6.4165 5.24999 6.93882 5.24999 7.58317V9.9165C5.24999 10.5609 4.72766 11.0832 4.08332 11.0832H2.33332C1.68899 11.0832 1.16666 10.5609 1.16666 9.9165V6.99984C1.16666 3.77817 3.77833 1.1665 6.99999 1.1665C10.2216 1.1665 12.8333 3.77817 12.8333 6.99984V7.58241V7.58317V9.9165V9.91778Z" fill="#0062CC"/>
</svg>
